<!-- Generated by IcoMoon.io -->
<svg version="1.1" xmlns="http://www.w3.org/2000/svg" width="32" height="32" viewBox="0 0 32 32">
<title>issue</title>
<path fill="#609e24" d="M16 0c-8.837 0-16 7.163-16 16s7.163 16 16 16c8.837 0 16-7.163 16-16s-7.163-16-16-16v0zM16 29c-7.18 0-13-5.82-13-13s5.82-13 13-13c7.18 0 13 5.82 13 13s-5.82 13-13 13v0zM21.535 7.004c0.095 0 0.174 0.031 0.237 0.091s0.095 0.136 0.095 0.231c0 0.020-0.002 0.042-0.007 0.062l-0.751 4.313h3.557c0.062 0 0.119 0.015 0.171 0.044 0.050 0.029 0.090 0.067 0.119 0.113 0.029 0.047 0.044 0.102 0.044 0.164 0 0.020-0.002 0.042-0.007 0.062l-0.411 2.363c-0.020 0.104-0.077 0.194-0.165 0.271-0.090 0.076-0.189 0.113-0.301 0.113h-3.56l-0.411 2.348h3.558c0.095 0 0.174 0.031 0.237 0.091s0.095 0.136 0.095 0.231c0 0.020-0.002 0.042-0.007 0.062l-0.411 2.363c-0.020 0.104-0.077 0.194-0.165 0.271-0.090 0.076-0.189 0.113-0.301 0.113h-3.558l-0.751 4.311c-0.020 0.104-0.077 0.194-0.165 0.271-0.090 0.076-0.189 0.113-0.301 0.113h-2.372c-0.095 0-0.174-0.029-0.237-0.091-0.062-0.060-0.095-0.136-0.095-0.231 0-0.020 0.002-0.042 0.007-0.062l0.751-4.311h-2.372l-0.751 4.311c-0.020 0.104-0.077 0.194-0.165 0.271-0.090 0.076-0.189 0.113-0.301 0.113h-2.372c-0.095 0-0.174-0.029-0.237-0.091-0.062-0.060-0.095-0.136-0.095-0.231 0-0.020 0.002-0.042 0.007-0.062l0.751-4.311h-3.559c-0.095 0-0.174-0.031-0.237-0.091s-0.095-0.136-0.095-0.231c0-0.020 0.002-0.042 0.007-0.062l0.411-2.363c0.020-0.104 0.077-0.194 0.165-0.271 0.090-0.076 0.189-0.113 0.301-0.113h3.562l0.411-2.348h-3.559c-0.048 0-0.092-0.007-0.134-0.024s-0.077-0.038-0.107-0.067c-0.029-0.029-0.051-0.062-0.068-0.102s-0.024-0.082-0.024-0.129c0-0.020 0.002-0.042 0.007-0.062l0.411-2.363c0.020-0.104 0.077-0.194 0.165-0.271 0.090-0.076 0.189-0.113 0.301-0.113h3.559l0.751-4.313c0.020-0.104 0.077-0.194 0.165-0.271 0.090-0.076 0.189-0.113 0.301-0.113h2.372c0.062 0 0.119 0.015 0.171 0.044 0.050 0.029 0.090 0.067 0.119 0.113 0.029 0.047 0.044 0.102 0.044 0.164 0 0.020-0.002 0.042-0.007 0.062l-0.751 4.313h2.369l0.751-4.313c0.020-0.104 0.077-0.194 0.165-0.271 0.090-0.076 0.189-0.113 0.301-0.113h2.372v0.004zM17 15h-2.557l-0.443 2h2.557l0.443-2z"></path>
</svg>
