<svg xmlns="http://www.w3.org/2000/svg" version="1.1" width="40" height="40" viewBox="0 0 40 40" style=""><rect id="backgroundrect" width="100%" height="100%" x="0" y="0" fill="none" stroke="none" class="" style=""/>
<title>cog</title>

<g class="currentLayer" style=""><title>Layer 1</title><path d="M36.083847813780075,23.508063320034616 c-2.084014025549018,-3.5847284265422767 -0.830378429477244,-8.177815812132554 2.7989586823186623,-10.266031064733177 l-3.9036474748967596,-6.714585880115469 c-1.1146185794776757,0.6496395738609974 -2.411696993235105,1.0219187983506006 -3.7956610423638444,1.0219187983506006 c-4.171751721185377,0 -7.552844160491823,-3.380098124339382 -7.552844160491823,-7.550365066221268 h-7.806053726431072 c0.009929786899578408,1.286952021083266 -0.3127882873367198,2.5923947321246246 -1.0066321469447608,3.78442787808968 c-2.084014025549018,3.5847284265422767 -6.716259614202341,4.803881251112536 -10.350561619448039,2.7255276998228934 l-3.9024062515343125,6.714585880115469 c1.123307143014807,0.6348470218945231 2.0964262591734903,1.5630796577907868 2.7877876720566372,2.753880091091969 c2.0802903554616754,3.578564863222913 0.8341020995645861,8.164255972829952 -2.7815815552444003,10.254936650758324 l3.9036474748967596,6.714585880115469 c1.110894909390334,-0.643476010541633 2.4017672063355264,-1.010824384375745 3.7782839152895824,-1.010824384375745 c4.158098264198457,0 7.530502139967773,3.3591420090535435 7.551602937129375,7.509685548313463 h7.806053726431072 c-0.0037236700873419033,-1.2746248944445373 0.3214768508738508,-2.564042340855549 1.0066321469447608,-3.744981072845749 c2.0802903554616754,-3.578564863222913 6.7013649338529735,-4.800183113120918 10.333184492373775,-2.7353894011338764 l3.9036474748967596,-6.714585880115469 c-1.1158598028401232,-0.6348470218945231 -2.0827728021865703,-1.5606142324630405 -2.770410544982375,-2.7440183897809862 zM19.723282673362206,27.710380791177194 c-4.441097190836441,0 -8.04188616529606,-3.576099437895167 -8.04188616529606,-7.98674534923226 s3.6007889744596184,-7.98674534923226 8.04188616529606,-7.98674534923226 c4.441097190836441,0 8.04188616529606,3.576099437895167 8.04188616529606,7.98674534923226 s-3.6007889744596184,7.98674534923226 -8.04188616529606,7.98674534923226 z" id="svg_1" class="selected" fill="#ffffff" fill-opacity="1"/></g></svg>
