<svg width="768" height="768" xmlns="http://www.w3.org/2000/svg">
 <title/>

 <g>
  <title>background</title>
  <rect x="-1" y="-1" width="770" height="770" id="canvas_background" fill="none"/>
 </g>
 <g>
  <title>Layer 1</title>
  <g id="icomoon-ignore"/>
  <path fill="#5a94ee" d="m619.5,321q61.5,4.5 105,50.25t43.5,108.75q0,66 -47.25,113.25t-113.25,47.25l-415.5,0q-79.5,0 -135.75,-56.25t-56.25,-135.75q0,-70.5 50.25,-126.75t120.75,-63.75q31.5,-58.5 88.5,-94.5t124.5,-36q81,0 150.75,57t84.75,136.5z" id="svg_1"/>
  <path fill="#fff" stroke="#000" stroke-width="1.5" stroke-opacity="null" fill-opacity="null" d="m256.38307,404.88739l137.99998,-121.7072l137.99998,121.7072l-68.99999,0l0,122.29283l-137.99997,0l0,-122.29283l-68.99999,0l-0.00001,0z" id="svg_7" transform="rotate(179.7162322998047 394.383056640625,405.1802368164062) "/>
 </g>
</svg>