<svg xmlns="http://www.w3.org/2000/svg" xmlns:sketch="http://www.bohemiancoding.com/sketch/ns" width="18.633136041249315"
     height="18.816568020624658" version="1.1" style="">
  <rect id="backgroundrect" width="100%" height="100%" x="0" y="0" fill="none" stroke="none" class="" style=""/>
  <!-- Generator: Sketch 3.0.1 (7597) - http://www.bohemiancoding.com/sketch -->
  <title>warning</title>
  <description>Created with Sketch.</description>
  <defs/>

  <g class="currentLayer" style="">
    <title>Layer 1</title>
    <g id="Page-1" stroke="none" stroke-width="1" fill="none" fill-rule="evenodd" sketch:type="MSPage" class="" opacity="1">
      <g id="warning" sketch:type="MSLayerGroup" opacity="1" stroke="none">
        <path
            d="M9.195529337375293,1.6660673047789858 L16.90167108081971,17.025610177329238 L1.4888129177061158,17.025610177329238 L9.194954638162564,1.6660673047789858 L9.195529337375293,1.6660673047789858 zM9.195529337375293,2.552199079634802e-16 C8.798986880594274,2.552199079634802e-16 8.403019123025985,0.267237425568206 8.101876735557504,0.8017122767046181 L0.25206021019542735,16.446308403194287 C-0.3490751663160849,17.515258105467108 0.16240713301015397,18.39053251222061 1.3888152546917714,18.39053251222061 L17.00109404462132,18.39053251222061 C18.227502164578844,18.39053251222061 18.73955916311781,17.515832809608117 18.137849087393576,16.446308403194287 L18.137849087393576,16.446308403194287 L10.288032540767631,0.8017122767046181 C9.987464852511872,0.267237425568206 9.590922395730855,0 9.194379938949838,0 L9.194379938949838,0 L9.195529337375293,2.552199079634802e-16 z"
            id="Shape" fill="#000000" sketch:type="MSShapeGroup" opacity="1" stroke="none"/>
        <polygon id="Triangle" fill="#F8E81C" sketch:type="MSShapeGroup"
                 points="9.195188153244393,1.7241123801332066 17.240976208966934,17.241126001465545 1.1493984172425566,17.241126001465545 "
                 opacity="1" stroke="none"/>
        <path
            d="M10.34458575932602,14.942307666179246 C10.34458575932602,15.577355741991862 9.83022996393615,16.091715948193034 9.195187333873799,16.091715948193034 C8.560144703811446,16.091715948193034 8.045788908421576,15.577355741991862 8.045788908421576,14.942307666179246 C8.045788908421576,14.307259590366627 8.560144703811446,13.792899384165459 9.195187333873799,13.792899384165459 C9.83022996393615,13.792899384165459 10.34458575932602,14.307259590366627 10.34458575932602,14.942307666179246 L10.34458575932602,14.942307666179246 z"
            id="Shape" fill="#000000" sketch:type="MSShapeGroup" opacity="1" stroke="none"/>
        <path
            d="M9.195187333873799,12.64349110215167 C8.560144703811446,12.64349110215167 8.045788908421576,12.1291308959505 8.045788908421576,11.494082820137882 L8.045788908421576,8.045857974096517 C8.045788908421576,7.410809898283898 8.560144703811446,6.896449692082729 9.195187333873799,6.896449692082729 C9.83022996393615,6.896449692082729 10.34458575932602,7.410809898283898 10.34458575932602,8.045857974096517 L10.34458575932602,11.494082820137882 C10.34458575932602,12.1291308959505 9.83022996393615,12.64349110215167 9.195187333873799,12.64349110215167 L9.195187333873799,12.64349110215167 z"
            id="Shape" fill="#000000" sketch:type="MSShapeGroup" opacity="1" stroke="none" transform=""/>
      </g>
    </g>
  </g>
</svg>