<?xml version="1.0" encoding="UTF-8"?>
<svg width="20px" height="20px" viewBox="0 0 20 20" version="1.1" xmlns="http://www.w3.org/2000/svg" xmlns:xlink="http://www.w3.org/1999/xlink">
    <!-- Generator: Sketch 55.2 (78181) - https://sketchapp.com -->
    <title>in-progress</title>
    <desc>Created with Sketch.</desc>
    <g id="Page-1" stroke="none" stroke-width="1" fill="none" fill-rule="evenodd">
        <g id="in-progress">
            <rect id="backgroundrect" x="0" y="0" width="20" height="20"></rect>
            <g id="Layer-1" fill-rule="nonzero">
                <g id="Page-1">
                    <g id="warning">
                        <path d="M10.0004884,1.811875 L18.381211,18.515625 L1.61914075,18.515625 L9.99986336,1.811875 L10.0004884,1.811875 Z M10.0004884,0 C9.56923334,0 9.13860332,0.290625 8.81109951,0.871875 L0.274125081,17.885625 C-0.379632535,19.048125 0.176623945,20 1.51038948,20 L18.4893373,20 C19.8231028,20 20.3799843,19.04875 19.7256017,17.885625 L19.7256017,17.885625 L11.1886272,0.871875 C10.8617484,0.290625 10.4304934,0 9.99923835,0 L9.99923835,0 L10.0004884,0 Z" id="Shape" fill="#000000"></path>
                        <polygon id="Triangle" fill="#F8E81C" points="10.0000009 1.81485514 18.38 18.5148551 1.62 18.5148551"></polygon>
                        <path d="M10.8890376,15.7287449 C10.8890376,16.3972166 10.3476105,16.9386484 9.67914456,16.9386484 C9.01067864,16.9386484 8.46925148,16.3972166 8.46925148,15.7287449 C8.46925148,15.0602733 9.01067864,14.5188415 9.67914456,14.5188415 C10.3476105,14.5188415 10.8890376,15.0602733 10.8890376,15.7287449 L10.8890376,15.7287449 Z" id="Shape" fill="#000000"></path>
                        <path d="M9.67914456,13.308938 C9.01067864,13.308938 8.46925148,12.7675062 8.46925148,12.0990345 L8.46925148,8.46932418 C8.46925148,7.80085252 9.01067864,7.25942073 9.67914456,7.25942073 C10.3476105,7.25942073 10.8890376,7.80085252 10.8890376,8.46932418 L10.8890376,12.0990345 C10.8890376,12.7675062 10.3476105,13.308938 9.67914456,13.308938 L9.67914456,13.308938 Z" id="Shape" fill="#000000"></path>
                    </g>
                </g>
            </g>
        </g>
    </g>
</svg>