<?xml version="1.0" encoding="UTF-8"?>
<svg width="32px" height="32px" viewBox="0 0 32 32" version="1.1" xmlns="http://www.w3.org/2000/svg"
     xmlns:sketch="http://www.bohemiancoding.com/sketch/ns">
  <!-- Generator: Sketch 3.0.1 (7597) - http://www.bohemiancoding.com/sketch -->
  <title>play</title>
  <desc>Created with Sketch.</desc>
  <defs></defs>
  <g id="Page-1" stroke="none" stroke-width="1" fill="none" fill-rule="evenodd" sketch:type="MSPage">
    <g id="play" sketch:type="MSLayerGroup" fill="#609E24">
      <path
          d="M16,0 C7.163,0 0,7.163 0,16 C0,24.837 7.163,32 16,32 C24.837,32 32,24.837 32,16 C32,7.163 24.837,0 16,0 L16,0 Z M16,29 C8.82,29 3,23.18 3,16 C3,8.82 8.82,3 16,3 C23.18,3 29,8.82 29,16 C29,23.18 23.18,29 16,29 L16,29 Z M12,9 L24,16 L12,23 L12,9 Z"
          id="Shape" sketch:type="MSShapeGroup"></path>
    </g>
  </g>
</svg>
